<?xml version="1.0" encoding="utf-8"?>
<!-- Generator: Adobe Illustrator 15.0.0, SVG Export Plug-In  -->
<!DOCTYPE svg PUBLIC "-//W3C//DTD SVG 1.1//EN" "http://www.w3.org/Graphics/SVG/1.1/DTD/svg11.dtd" [
	<!ENTITY ns_flows "http://ns.adobe.com/Flows/1.0/">
]>
<svg version="1.1"
	 xmlns="http://www.w3.org/2000/svg" xmlns:xlink="http://www.w3.org/1999/xlink" xmlns:a="http://ns.adobe.com/AdobeSVGViewerExtensions/3.0/"
	 x="0px" y="0px" width="792px" height="612px" viewBox="-74.574 -169.607 792 612"
	 enable-background="new -74.574 -169.607 792 612" xml:space="preserve">
<defs>
</defs>
	
	<style type="text/css"><![CDATA[



		]]></style>
	
	
<g class="ModernArt">
<path fill="#FFFFFF" d="M87.616,204.315v-37.033c0-11.695,6.223-17.542,18.671-17.542h12.823c12.447,0,18.67,5.847,18.67,17.542
	v37.033c0,11.488-6.224,17.234-18.67,17.234h-12.823C93.839,221.549,87.616,215.803,87.616,204.315z M106.185,218.061h13.131
	c9.915,0,14.875-4.664,14.875-13.996v-36.533c0-9.535-4.96-14.305-14.875-14.305h-13.131c-9.986,0-14.978,4.77-14.978,14.305v36.533
	C91.207,213.397,96.199,218.061,106.185,218.061z"/>
<path fill="#FFFFFF" d="M152.143,221.549v-71.81h35.699c3.351,0,6.052,0.563,8.105,1.692c2.051,1.128,4.034,3.063,5.949,5.797
	c1.437,2.051,2.154,5.025,2.154,8.924v38.059c0,5.199-1.437,9.388-4.309,12.568c-2.873,3.18-6.908,4.77-12.104,4.77H152.143z
	 M187.534,218.061c0.752,0,1.641-0.102,2.668-0.309c6.838-1.373,10.257-5.832,10.257-13.379V166.09c0-2.744-0.547-4.973-1.64-6.689
	c-2.601-4.115-6.327-6.174-11.182-6.174h-31.904v64.834H187.534z"/>
<path fill="#FFFFFF" d="M218.413,205.75v-39.7c0-9.163,4.546-14.498,13.644-16.003c1.23-0.205,2.291-0.308,3.18-0.308h29.647v3.487
	h-30.026c-0.823,0-1.645,0.069-2.467,0.207c-7.063,1.171-10.594,5.369-10.594,12.599v18.278h42.984l-0.103,3.488h-42.882V205.4
	c0,3.912,1.185,7.001,3.557,9.265c2.371,2.266,5.516,3.396,9.433,3.396h29.893v3.488h-30.16c-0.958,0-2.019-0.104-3.18-0.309
	C222.72,219.739,218.413,214.574,218.413,205.75z"/>
<path fill="#FFFFFF" d="M575.816,153.227v-3.487h45.959v3.487H600.54v68.322h-3.591v-68.322H575.816z"/>
<path fill="#FFFFFF" d="M39.686,221.591v-56.347c0-8.133,4.367-12.197,13.105-12.197h7.215c8.676,0,13.016,4.064,13.016,12.197
	v56.137l3.14-0.004v-56.346c0-9.97-5.444-14.961-16.335-14.961H52.88c-10.892,0-16.335,4.991-16.335,14.961v56.563"/>
<path fill="#FFFFFF" d="M3.141,221.591v-56.347c0-8.133,4.366-12.197,13.104-12.197h7.215c8.676,0,13.016,4.064,13.016,12.197
	v56.137l3.141-0.004v-56.346c0-9.97-5.445-14.961-16.335-14.961h-6.946C5.443,150.071,0,155.062,0,165.032v56.563"/>
<path fill="#FFFFFF" d="M493.501,167.532v53.934c1.251,0.061,2.46-0.169,3.59,0.063v-54.243c0-11.696-6.222-17.542-18.671-17.542
	h-12.823c-12.446,0-18.669,5.846-18.669,17.542v54.427c1.136-0.209,2.336-0.055,3.59-0.092v-54.088
	c0-9.533,4.992-14.303,14.978-14.303h13.132C488.541,153.229,493.501,157.999,493.501,167.532z"/>
<path fill="#FFFFFF" d="M495.099,187.325c-0.014-0.672,0.331-1.327,0.479-1.99c-2.515-0.049-4.869-0.141-7.553-0.141h-39.271
	c-0.431,1.152-0.903,2.32-1.383,3.488h41.352c2.056,0,3.853,0.072,5.783,0.11C494.684,188.303,494.804,187.823,495.099,187.325z"/>
<path fill="#FFFFFF" d="M283.472,221.357v-33.655h31.624c8.393,0,12.589,3.971,12.589,11.911v5.136
	c0,0.355-0.01,16.396-0.021,16.701c1.141-0.19,2.376-0.13,3.564,0c0.015-0.406,0.039-16.645,0.039-17.066v-5.015
	c0-7.368-2.765-11.871-8.291-13.509c5.526-2.047,8.291-6.686,8.291-13.918v-6.039c0-3.547-0.717-6.516-2.148-8.904
	c-1.709-2.865-3.754-4.844-6.143-5.936c-2.046-0.887-4.912-1.33-8.596-1.33h-34.491v71.641 M314.688,184.222h-31.216v-31.01h31.051
	c3.085,0,5.449,0.413,7.094,1.235c3.839,1.924,5.862,5.736,6.068,11.436v7.006c-0.069,0.413-0.102,0.723-0.102,0.928
	C326.626,180.752,322.327,184.222,314.688,184.222z"/>
<path fill="#FFFFFF" d="M515.938,221.357v-33.655h31.623c8.394,0,12.59,3.971,12.59,11.911v5.136c0,0.355-0.008,16.396-0.021,16.701
	c1.141-0.19,2.375-0.13,3.563,0c0.016-0.406,0.038-16.645,0.038-17.066v-5.015c0-7.368-2.763-11.871-8.288-13.509
	c5.525-2.047,8.288-6.686,8.288-13.918v-6.039c0-3.547-0.717-6.516-2.148-8.904c-1.706-2.865-3.754-4.844-6.14-5.937
	c-2.048-0.886-4.912-1.329-8.599-1.329h-34.488v71.641 M547.154,184.222h-31.216v-31.011h31.053c3.082,0,5.447,0.414,7.093,1.236
	c3.837,1.923,5.86,5.736,6.067,11.436v7.006c-0.07,0.412-0.103,0.723-0.103,0.928C559.091,180.752,554.794,184.222,547.154,184.222z
	"/>
<path fill="#FFFFFF" d="M392.504,167v53.933c1.253,0.062,2.461-0.168,3.591,0.063V166.75c0-11.695-6.224-17.541-18.672-17.541
	h-12.822c-12.447,0-18.669,5.846-18.669,17.541v54.428c1.135-0.208,2.335-0.055,3.589-0.092V167c0-9.534,4.993-14.304,14.979-14.304
	h13.131C387.543,152.696,392.504,157.465,392.504,167z"/>
</g>	
	
	
<g class="icon">
	<path fill="#A48C4E" d="M357.032,48.676l-3.452,7.65h21.242c0.627-6.591,0.115-12.888-1.395-18.726
	c-3.154,0.027-6.275,1.098-9.533,3.286C360.694,43.03,358.42,45.602,357.032,48.676z"/>
<path fill="#A48C4E" d="M346.74,71.479l-10.131,22.445h-15.751l20.425-45.249c3.258-7.218,8.738-13.438,16.305-18.513
	c3.508-2.354,7.008-4.163,10.488-5.44C359.135,9.726,342.299,0,321.42,0c-20.11,0-39.589,9.021-53.62,23.085
	c2.183-0.422,4.362-0.642,6.539-0.642h1.115c7.576,0,12.848,2.644,15.883,7.933c7.811-5.289,15.541-7.933,23.045-7.933h1.189
	c7.576,0,12.878,2.574,15.864,7.649c2.983,5.074,2.853,11.292-0.438,18.583l-20.425,45.249h-15.749l20.423-45.249
	c1.388-3.074,1.433-5.646,0.1-7.79c-1.229-2.217-3.419-3.29-6.614-3.29h-1.188c-3.195,0-6.354,1.073-9.657,3.29
	c-3.196,2.145-5.473,4.716-6.86,7.79l-20.424,45.249h-15.897l20.423-45.249c1.387-3.074,1.435-5.646,0.099-7.79
	c-1.228-2.217-3.417-3.29-6.612-3.29H267.5c-3.195,0-6.353,1.073-9.656,3.29c-3.196,2.145-5.473,4.716-6.86,7.79l-0.098,0.218
	c-1.481,3.886-2.603,7.908-3.314,12.024c-5.818,33.645,17.815,60.919,52.784,60.919c31.229,0,60.931-21.748,71.074-50.357H346.74z"
	/>
</g>
</svg>
